<?xml version="1.0" encoding="UTF-8"?>
<svg version="1.1" xmlns="http://www.w3.org/2000/svg" width="698" height="504">
<!-- Background removed (transparent) -->
<path d="M0 0 C230.34 0 460.68 0 698 0 C698 166.32 698 332.64 698 504 C467.66 504 237.32 504 0 504 C0 337.68 0 171.36 0 0 Z " fill="none" transform="translate(0,0)"/>
<!-- Main logo M letter -->
<path d="M0 0 C-0.59957181 9.2724704 -1.63519423 18.42655777 -2.9375 27.625 C-3.10701172 28.85734375 -3.27652344 30.0896875 -3.45117188 31.359375 C-4.19464063 36.68521201 -4.96976433 41.98986014 -5.97265625 47.2734375 C-7.4467677 55.13584673 -8.43130845 63.0745447 -9.5 71 C-10.80925009 80.70944617 -12.14395805 90.37607876 -14 100 C-8.72 100 -3.44 100 2 100 C2.33 98.02 2.66 96.04 3 94 C3.42113221 92.62614652 3.88501795 91.26436751 4.39868164 89.92236328 C4.81900414 88.81189133 4.81900414 88.81189133 5.24781799 87.6789856 C5.54888962 86.90062347 5.84996124 86.12226135 6.16015625 85.3203125 C6.62415077 84.10116653 6.62415077 84.10116653 7.09751892 82.85739136 C8.08061909 80.27789564 9.07143081 77.70144303 10.0625 75.125 C10.73293427 73.36998732 11.40286167 71.61478092 12.07226562 69.859375 C13.70898415 65.57065173 15.35262231 61.28463957 17 57 C12.21764068 56.94043766 8.18817268 57.25262759 3.5625 58.5 C2.51191406 58.7784375 1.46132813 59.056875 0.37890625 59.34375 C-0.40613281 59.5603125 -1.19117188 59.776875 -2 60 C-1.71517632 58.58194169 -1.42181856 57.16559621 -1.125 55.75 C-0.96257812 54.96109375 -0.80015625 54.1721875 -0.6328125 53.359375 C0.89664918 47.65693761 0.89664918 47.65693761 3.69921875 45.98828125 C4.68341797 45.65376953 4.68341797 45.65376953 5.6875 45.3125 C6.33074219 45.08175781 6.97398437 44.85101563 7.63671875 44.61328125 C13.89357781 42.98960047 20.02588907 42.87033566 26.4375 42.9375 C27.26443359 42.94201172 28.09136719 42.94652344 28.94335938 42.95117188 C30.96227146 42.96284189 32.98114574 42.98077282 35 43 C33.09120155 49.65857881 30.91426619 56.14171446 28.41796875 62.6015625 C28.08130692 63.48170013 27.74464508 64.36183777 27.39778137 65.26864624 C26.33105634 68.05540277 25.25946858 70.84025684 24.1875 73.625 C23.12731877 76.38872238 22.06816998 79.15283819 21.00935364 81.91708374 C20.35468867 83.62517979 19.69910072 85.33292259 19.0422821 87.04019165 C15.98040632 95.00972701 12.99811931 103.00501518 10 111 C-31.58 111 -73.16 111 -116 111 C-138 53 -138 53 -141 43 C-125.83113826 42.65350316 -113.18709125 44.5014528 -99 50 C-99.2990625 49.24976563 -99.598125 48.49953125 -99.90625 47.7265625 C-101.39212072 42.6639887 -101.9083196 37.60748476 -102.5 32.375 C-103.64826524 22.62773776 -103.64826524 22.62773776 -105.1875 12.9375 C-105.91372546 8.87423855 -106.18739014 5.12258308 -106 1 C-81.96673526 10.01247428 -65.66094641 33.26261383 -55.38696289 55.66577148 C-54.58413778 57.44062147 -53.79094907 59.2198258 -53 61 C-52.731875 60.29617187 -52.46375 59.59234375 -52.1875 58.8671875 C-46.99696891 45.78841508 -40.44734846 34.45238554 -31 24 C-30.20207031 23.10796875 -29.40414062 22.2159375 -28.58203125 21.296875 C-8.47169643 0 -8.47169643 0 0 0 Z " fill="#C9A96E" transform="translate(397,52)"/>
<!-- Circle 1 -->
<path d="M0 0 C11.06331988 7.06823215 16.75907368 16.54261108 20.5859375 28.890625 C22.88275554 40.59139617 20.55534781 52.75150787 14.25 62.8125 C7.09671276 72.55885387 -1.377312 79.50769513 -13.52734375 81.71484375 C-24.9287459 83.02969739 -34.73728021 81.99795006 -44.25 75.1875 C-45.51855949 74.14722933 -46.7690907 73.08455915 -48 72 C-48.61746094 71.47535156 -49.23492187 70.95070313 -49.87109375 70.41015625 C-57.86646269 63.10256098 -62.28945232 52.36543322 -63.3203125 41.6796875 C-63.74203522 28.88743156 -60.02114186 18.00718275 -52 8 C-37.79363535 -6.4279544 -17.81665679 -9.76125346 0 0 Z " fill="#C9A96E" transform="translate(184,237)"/>
<!-- Circle 2 -->
<path d="M0 0 C10.35312743 5.46326571 16.98281092 14.19362479 21.125 25 C22.43273351 29.67735361 22.34480938 34.42704819 22.375 39.25 C22.395625 40.05824219 22.41625 40.86648438 22.4375 41.69921875 C22.50869085 52.82278972 18.05697536 63.00888166 10.5625 71.1875 C1.06806638 80.17939271 -10.8131337 83.56962352 -23.57421875 83.3046875 C-34.28690453 82.3158242 -43.96620694 76.65558533 -50.98046875 68.57421875 C-59.61617543 56.73464647 -61.9006774 45.57927155 -60.875 31 C-58.55834132 19.23528151 -51.82124284 8.77447736 -41.875 2 C-28.10286241 -5.27335113 -14.38747803 -6.29313181 0 0 Z " fill="#C9A96E" transform="translate(362.875,236)"/>
<!-- M letter body -->
<path d="M0 0 C3.82349452 1.27449817 4.1362998 2.48076464 6.08203125 5.94140625 C6.67798096 6.98949463 7.27393066 8.03758301 7.88793945 9.11743164 C8.52304443 10.2543042 9.15814941 11.39117676 9.8125 12.5625 C10.47442083 13.73035123 11.13743839 14.89758149 11.80151367 16.06420898 C13.17856345 18.48479994 14.55174125 20.90751912 15.921875 23.33203125 C19.18310439 29.09613571 22.49255535 34.83202294 25.8125 40.5625 C26.40458252 41.59640869 26.99666504 42.63031738 27.60668945 43.69555664 C28.15542725 44.64293701 28.70416504 45.59031738 29.26953125 46.56640625 C29.75010986 47.40115479 30.23068848 48.23590332 30.72583008 49.09594727 C31.86573488 51.13896085 31.86573488 51.13896085 34 52 C34.26031006 51.14132324 34.52062012 50.28264648 34.78881836 49.39794922 C36.03507807 45.90158907 37.57351204 42.87378357 39.37890625 39.6328125 C39.70719421 39.04009552 40.03548218 38.44737854 40.37371826 37.83670044 C41.43151994 35.92989587 42.49657965 34.02727628 43.5625 32.125 C44.29155811 30.81754913 45.02031699 29.50993136 45.7487793 28.20214844 C46.83092721 26.26039787 47.91381999 24.31908419 48.9992218 22.37915039 C51.00775239 18.78880744 52.99406896 15.18799873 54.953125 11.5703125 C55.36232178 10.82120605 55.77151855 10.07209961 56.19311523 9.30029297 C56.91816626 7.97227149 57.63685731 6.64074974 58.34790039 5.30517578 C60.66086063 1.11304646 60.66086063 1.11304646 64 0 C66.09067123 10.36071284 68.17719755 20.72225087 70.25842285 31.08486557 C71.22492808 35.89650926 72.19286368 40.70785598 73.1640625 45.51855469 C74.10110607 50.16034069 75.03439967 54.8028662 75.96508789 59.44593048 C76.32098685 61.21802934 76.67824075 62.98985664 77.03686523 64.76140594 C77.53857325 67.24095014 78.03547392 69.72141239 78.53125 72.20214844 C78.68086182 72.93582642 78.83047363 73.66950439 78.98461914 74.42541504 C79.63768636 77.71742491 80 80.62400873 80 84 C74.06 84 68.12 84 62 84 C59.53200397 73.02167282 57.15032285 62.04484012 55 51 C54.34 51 53.68 51 53 51 C52.67314209 51.63389648 52.34628418 52.26779297 52.00952148 52.92089844 C35.11887089 85.62704304 35.11887089 85.62704304 31 87 C30.5467334 86.20416504 30.0934668 85.40833008 29.62646484 84.58837891 C27.91643115 81.58721093 26.20537143 78.58663258 24.49365234 75.58642578 C23.75822539 74.29694081 23.02318784 73.00723366 22.28857422 71.71728516 C17.9456345 64.09195989 13.56154077 56.49755407 9 49 C7.49196151 53.27372417 6.39580266 57.49018695 5.4921875 61.9296875 C5.22792969 63.21875 4.96367188 64.5078125 4.69140625 65.8359375 C4.41919048 67.18227542 4.14705606 68.5286298 3.875 69.875 C3.5953903 71.24486074 3.31544556 72.61465315 3.03515625 73.984375 C2.35347838 77.32224596 1.67629987 80.66103523 1 84 C-4.61 84 -10.22 84 -16 84 C-15.24908195 75.10895254 -13.39029471 66.44547611 -11.62109375 57.71484375 C-11.28588185 56.04625611 -10.95101285 54.37759954 -10.61647034 52.70887756 C-9.74036162 48.34351549 -8.85963455 43.97909795 -7.97790527 39.61486816 C-7.07685145 35.15071331 -6.18021986 30.6856706 -5.28320312 26.22070312 C-3.5264347 17.47959978 -1.76478043 8.73948902 0 0 Z " fill="#C9A96E" transform="translate(34,232)"/>
<!-- H letter -->
<path d="M0 0 C6.6 0 13.2 0 20 0 C20 9.9 20 19.8 20 30 C30.23 30 40.46 30 51 30 C51 20.1 51 10.2 51 0 C57.27 0 63.54 0 70 0 C70 27.06 70 54.12 70 82 C63.73 82 57.46 82 51 82 C51 70.78 51 59.56 51 48 C40.77 48 30.54 48 20 48 C20 59.55 20 71.1 20 83 C13.4 83 6.8 83 0 83 C0 55.61 0 28.22 0 0 Z " fill="#C9A96E" transform="translate(218,234)"/>
<!-- A letter -->
<path d="M0 0 C0.66 0 1.32 0 2 0 C2.41173462 0.86105347 2.41173462 0.86105347 2.83178711 1.73950195 C9.02048386 14.67421938 15.24955099 27.58838189 21.52227783 40.48251343 C23.69204943 44.94413404 25.8585366 49.40735007 28.02459717 53.87077332 C29.59251052 57.101606 31.16159687 60.33184015 32.73388672 63.56054688 C34.18246136 66.53764849 35.62382838 69.51810369 37.0625 72.5 C37.47387207 73.34143555 37.88524414 74.18287109 38.30908203 75.04980469 C41 80.65598323 41 80.65598323 41 84 C34.4 84 27.8 84 21 84 C17 75 17 75 17 72 C5.78 72 -5.44 72 -17 72 C-17.99 74.97 -18.98 77.94 -20 81 C-20.66 81.99 -21.32 82.98 -22 84 C-23.97119141 84.34057617 -23.97119141 84.34057617 -26.3515625 84.29296875 C-27.20234375 84.28330078 -28.053125 84.27363281 -28.9296875 84.26367188 C-29.81914063 84.23853516 -30.70859375 84.21339844 -31.625 84.1875 C-32.5221875 84.17396484 -33.419375 84.16042969 -34.34375 84.14648438 C-36.56309789 84.11106925 -38.78125188 84.06168461 -41 84 C-39.73872966 79.98069278 -38.25841619 76.28735677 -36.34765625 72.53515625 C-35.56273804 70.98272217 -35.56273804 70.98272217 -34.76196289 69.39892578 C-34.20114014 68.29790527 -33.64031738 67.19688477 -33.0625 66.0625 C-31.87335623 63.70786067 -30.6858847 61.35237615 -29.5 58.99609375 C-29.20162735 58.40328613 -28.9032547 57.81047852 -28.59584045 57.19970703 C-25.84052384 51.71102026 -23.19022378 46.17559223 -20.5625 40.625 C-16.26795034 31.57355917 -11.85024321 22.58805452 -7.375 13.625 C-6.90660202 12.6844577 -6.90660202 12.6844577 -6.42874146 11.72491455 C-5.54594434 9.95348036 -4.6597701 8.18373037 -3.7734375 6.4140625 C-3.26216309 5.3926416 -2.75088867 4.3712207 -2.22412109 3.31884766 C-1 1 -1 1 0 0 Z " fill="#C9A96E" transform="translate(563,232)"/>
<!-- S letter -->
<path d="M0 0 C1 1 1 1 1.11352539 2.76586914 C1.10828857 3.51473389 1.10305176 4.26359863 1.09765625 5.03515625 C1.09443359 5.84404297 1.09121094 6.65292969 1.08789062 7.48632812 C1.07532227 8.7615332 1.07532227 8.7615332 1.0625 10.0625 C1.05798828 10.91650391 1.05347656 11.77050781 1.04882812 12.65039062 C1.03700373 14.76695663 1.01906769 16.88348685 1 19 C-2.88251414 17.73247333 -6.69302969 16.35184193 -10.5 14.875 C-15.44266541 13.07766712 -19.14957271 12.22961425 -24.3125 13.625 C-26.26024643 14.97713821 -26.26024643 14.97713821 -27.0625 17.8125 C-27.3256972 21.10218249 -27.3256972 21.10218249 -25.05078125 23.390625 C-21.54283129 26.681066 -17.36336217 28.73480439 -13.125 30.9375 C-3.95923027 35.70278824 4.46512276 40.77075347 8 51 C9.45144123 60.54895549 7.07913834 67.42528019 1.8125 75.25 C-6.05362732 82.94132449 -13.99390621 84.21937318 -24.67993164 84.25756836 C-39.93558523 84.06441477 -39.93558523 84.06441477 -44 80 C-45.20973702 73.01040833 -45.09708765 66.07661086 -45 59 C-42.50382938 59.98955335 -40.02128501 60.9906537 -37.5625 62.0703125 C-30.56820992 64.94905994 -23.54453076 66.40748448 -16 65 C-13.40085086 62.91634878 -12.19009984 61.82376597 -11.4375 58.5625 C-12.36613203 54.33206521 -15.48116171 52.00659525 -18.96899414 49.69506836 C-21.23530209 48.33212993 -23.52055685 47.00683258 -25.8125 45.6875 C-42.76050419 35.58998604 -42.76050419 35.58998604 -45.59765625 26.1328125 C-46.84416827 19.5250886 -46.7258693 13.738531 -43.328125 7.81640625 C-33.124764 -6.13819041 -14.85294998 -5.18376012 0 0 Z " fill="#C9A96E" transform="translate(512,235)"/>
<!-- Y letter -->
<path d="M0 0 C6.93 0 13.86 0 21 0 C26.94 13.86 32.88 27.72 39 42 C41.55618389 39.44381611 42.44789662 36.9262033 43.86328125 33.59375 C44.13714157 32.95441528 44.41100189 32.31508057 44.69316101 31.65637207 C45.57083322 29.60615922 46.44216782 27.55333837 47.3125 25.5 C50.97793206 16.87326563 54.69549969 8.33441711 59 0 C65.27 0 71.54 0 78 0 C70.11913615 18.55369202 61.66064607 36.82714684 53.18481445 55.11392212 C48.73601448 64.7181583 44.35763214 74.35408563 40 84 C37 83 37 83 35.4921875 80.23242188 C34.94235671 78.98254649 34.40421973 77.72749098 33.875 76.46875 C33.57542389 75.78185089 33.27584778 75.09495178 32.9671936 74.38723755 C32.31340528 72.88602847 31.66433111 71.38275981 31.01934814 69.87774658 C29.27207841 65.80203931 27.49050559 61.74137219 25.7109375 57.6796875 C25.33625336 56.82249115 24.96156921 55.9652948 24.57553101 55.0821228 C19.68899557 43.94447559 14.52096118 32.93603328 9.35888672 21.92407227 C8.54738335 20.19270502 7.73706844 18.46078012 6.92807007 16.72824097 C6.19321337 15.15454938 5.45563892 13.58212267 4.7147522 12.01126099 C4.38558807 11.30581146 4.05642395 10.60036194 3.71728516 9.87353516 C3.4324527 9.2670816 3.14762024 8.66062805 2.85415649 8.03579712 C1.75439446 5.4146236 0.89888971 2.69666914 0 0 Z " fill="#C9A96E" transform="translate(592,235)"/>
<!-- T letter -->
<path d="M0 0 C23.43 0 46.86 0 71 0 C71 5.61 71 11.22 71 17 C62.42 17 53.84 17 45 17 C45 38.12 45 59.24 45 81 C38.73 81 32.46 81 26 81 C26 59.88 26 38.76 26 17 C17.42 17 8.84 17 0 17 C0 11.39 0 5.78 0 0 Z " fill="#C9A96E" transform="translate(390,235)"/>
<!-- Inner oval 1 - cream highlight -->
<path d="M0 0 C5.18765527 3.17468479 8.95927604 7.97693814 11.5234375 13.42578125 C12.86097001 23.62446666 13.30733292 32.61428936 7.0234375 41.23828125 C3.6601144 44.79499543 -0.18900673 48.04731256 -5.12109375 48.57421875 C-17.39537885 48.70493531 -17.39537885 48.70493531 -21.9765625 44.23828125 C-28.32677257 38.01412994 -31.06328873 32.21722419 -31.4140625 23.30078125 C-31.1791539 14.83339414 -28.00088501 8.12568734 -21.9765625 2.23828125 C-14.98920292 -2.58525085 -7.84382314 -3.27084324 0 0 Z " fill="#F8F4EE" transform="translate(352.9765625,251.76171875)"/>
<!-- Inner oval 2 - cream highlight -->
<path d="M0 0 C5.38573233 3.03755303 9.66064897 7.65795186 11.515625 13.60546875 C12.94192474 21.74301814 13.30758754 30.69956888 9.36328125 38.1640625 C6.13814973 42.59526814 2.1840885 46.357908 -3.046875 48.1015625 C-8.80654658 48.57064123 -14.16132314 48.95863153 -19.484375 46.5390625 C-25.58229164 40.73860521 -29.61283986 36.27616325 -30.34765625 27.515625 C-30.37687462 18.06835074 -30.33470907 11.34207435 -23.734375 4.2890625 C-16.53727236 -2.30577213 -8.99831825 -3.79063013 0 0 Z " fill="#F8F4EE" transform="translate(172.046875,251.8984375)"/>
<!-- Top decorative element - cream -->
<path d="M0 0 C21.48969999 0.76890206 38.09743611 11.75426659 52.57421875 26.6484375 C64 38.92407025 64 38.92407025 64 44 C57.07 44 50.14 44 43 44 C42.7525 40.82375 42.505 37.6475 42.25 34.375 C41.4411548 27.04650798 41.4411548 27.04650798 37.12890625 21.3359375 C34.09857338 19.88680305 31.26153759 18.788837 28 18 C28.12117188 18.59425781 28.24234375 19.18851563 28.3671875 19.80078125 C29.31050879 24.46659345 30.23547275 29.13612816 31.125 33.8125 C31.29257812 34.68519531 31.46015625 35.55789062 31.6328125 36.45703125 C32 39 32 39 32 44 C26.72 44 21.44 44 16 44 C14.20007172 39.34226834 12.40251283 34.68375101 10.6105957 30.02294922 C10.0018941 28.44170957 9.39189708 26.8609679 8.78051758 25.28076172 C2.26753204 8.44179176 2.26753204 8.44179176 0 0 Z " fill="#F8F4EE" transform="translate(273,108)"/>
<!-- Gold divider line -->
<path d="M0 0 C38.28 0 76.56 0 116 0 C115.01 3.63 114.02 7.26 113 11 C77.03 11 41.06 11 4 11 C0 2 0 2 0 0 Z " fill="#C9A96E" transform="translate(286,174)"/>
<!-- Decorative element left - cream -->
<path d="M0 0 C15.30230491 12.49167748 26.07831039 30.28949693 29 50 C28.360625 49.34 27.72125 48.68 27.0625 48 C20.08170453 40.88037125 20.08170453 40.88037125 11.85546875 35.41015625 C3.88040964 31.31172805 3.88040964 31.31172805 2.17675781 26.83837891 C0.01989967 18.03554967 -0.10915457 9.01434802 0 0 Z " fill="#F8F4EE" transform="translate(306,78)"/>
<!-- Decorative element right - cream -->
<path d="M0 0 C0.23180389 5.21558742 -0.403588 9.91785413 -1.46484375 15.02734375 C-2.06183057 18.01172537 -2.06183057 18.01172537 -2.19140625 21.12890625 C-2.80635576 28.92802775 -2.80635576 28.92802775 -6.22265625 31.99609375 C-8.10591582 33.14300148 -10.02386282 34.2344583 -11.96875 35.2734375 C-16.16114858 37.66137587 -19.41208911 40.78640223 -22.90625 44.08203125 C-25 46 -25 46 -28 48 C-27.47385331 42.12688754 -26.27887587 37.24052861 -24 31.8125 C-23.69167236 31.07636475 -23.38334473 30.34022949 -23.06567383 29.58178711 C-19.97254242 22.49499237 -8.88564839 0 0 0 Z " fill="#F8F4EE" transform="translate(382,78)"/>
<!-- Decorative arc - cream -->
<path d="M0 0 C-0.60320442 9.41316376 -1.69124054 18.66418254 -3 28 C-9.93 28 -16.86 28 -24 28 C-20.87237899 18.61713698 -14.46966439 12.30617535 -7.625 5.375 C-7.10115723 4.84181152 -6.57731445 4.30862305 -6.03759766 3.75927734 C-2.2462003 0 -2.2462003 0 0 0 Z " fill="#F8F4EE" transform="translate(375,124)"/>
<!-- Small emblem dot 1 - gold -->
<path d="M0 0 C3.07192455 0.62116121 4.37587028 1.87887333 6.125 4.4296875 C7.7168931 9.2053668 7.65561766 13.02355071 5.875 17.7421875 C4.03710522 20.56466877 3.31702544 21.51768023 0.125 22.4296875 C-2.875 22.8046875 -2.875 22.8046875 -5.875 22.4296875 C-8.17775556 20.5625884 -9.55323871 19.07321009 -10.875 16.4296875 C-11.37087679 11.38149917 -11.54267696 6.91018858 -9.4375 2.2421875 C-6.16810435 -0.07031186 -3.9401079 -0.22033498 0 0 Z " fill="#C9A96E" transform="translate(402.875,350.5703125)"/>
<!-- Small emblem dot 2 - gold -->
<path d="M0 0 C3.36611029 0.06968063 4.42432125 0.18884918 7.25 2.1875 C9.38133096 6.91349474 9.46844264 11.27590397 8.6875 16.375 C6.88631522 19.37697464 5.78417268 20.82666366 2.6875 22.375 C-0.125 22.75 -0.125 22.75 -3.3125 22.375 C-6.41414769 19.82475635 -8.03816416 18.19800753 -9.3125 14.375 C-9.85223359 8.65382393 -8.85115525 5.87874305 -5.3125 1.375 C-3.74331508 -0.19418492 -2.17164841 0.09241057 0 0 Z " fill="#C9A96E" transform="translate(329.3125,350.625)"/>
<!-- Small oval - cream -->
<path d="M0 0 C3.63354502 0.94501473 4.93542865 2.37566977 6.9375 5.50390625 C7.73651437 10.19043287 7.53422197 14.13997033 5.625 18.50390625 C3.32275909 21.23248807 1.60898316 22.40172403 -1.9375 22.94140625 C-6.10872291 22.35743504 -7.44796131 20.71605378 -10.0625 17.50390625 C-11.51098902 13.15843918 -12.14188911 8.89974656 -10.2265625 4.6484375 C-7.39027888 0.64147306 -4.67146787 -0.41583142 0 0 Z " fill="#F8F4EE" transform="translate(543.0625,350.49609375)"/>
<!-- A crossbar highlight - cream -->
<path d="M0 0 C2.79070527 1.39535263 3.00060246 2.97159511 4.1640625 5.83984375 C4.56367187 6.82017578 4.96328125 7.80050781 5.375 8.81054688 C5.99375 10.35838867 5.99375 10.35838867 6.625 11.9375 C7.04523437 12.96552734 7.46546875 13.99355469 7.8984375 15.05273438 C11 22.72104556 11 22.72104556 11 25 C4.07 25 -2.86 25 -10 25 C-6.80559568 16.60328008 -3.50286117 8.27271468 0 0 Z " fill="#F8F4EE" transform="translate(562,265)"/>
<!-- Tagline letters - all gold -->
<path d="M0 0 C10 0 10 0 14 3 C13.67 5.31 13.34 7.62 13 10 C12.01 10.33 11.02 10.66 10 11 C11.98 14.63 13.96 18.26 16 22 C14.68 22 13.36 22 12 22 C10.62109375 20.28515625 10.62109375 20.28515625 9.4375 18.0625 C7.64655921 14.53420816 7.64655921 14.53420816 4 13 C4 15.97 4 18.94 4 22 C2.68 22 1.36 22 0 22 C0 14.74 0 7.48 0 0 Z " fill="#C9A96E" transform="translate(498,351)"/>
<path d="M0 0 C10 0 10 0 13 2 C13.3125 5.5 13.3125 5.5 13 9 C12.34 9.66 11.68 10.32 11 11 C11.36258148 14.50495432 13.20740719 17.03832492 15 20 C15 20.66 15 21.32 15 22 C12.33409919 21.63775446 11.28184981 21.37047681 9.62109375 19.1875 C9.23050781 18.465625 8.83992187 17.74375 8.4375 17 C6.63369154 13.51384626 6.63369154 13.51384626 3 12 C3 15.3 3 18.6 3 22 C2.01 22 1.02 22 0 22 C0 14.74 0 7.48 0 0 Z " fill="#C9A96E" transform="translate(120,351)"/>
<path d="M0 0 C3.3 0 6.6 0 10 0 C13 3 13 3 13.3125 6.0625 C13 9 13 9 11 11 C11.36258148 14.50495432 13.20740719 17.03832492 15 20 C15 20.66 15 21.32 15 22 C12.33409919 21.63775446 11.28184981 21.37047681 9.62109375 19.1875 C9.23050781 18.465625 8.83992188 17.74375 8.4375 17 C6.63369154 13.51384626 6.63369154 13.51384626 3 12 C3 15.3 3 18.6 3 22 C2.01 22 1.02 22 0 22 C0 14.74 0 7.48 0 0 Z " fill="#C9A96E" transform="translate(414,351)"/>
<path d="M0 0 C0.66 0 1.32 0 2 0 C3.32 4.29 4.64 8.58 6 13 C6.598125 11.040625 7.19625 9.08125 7.8125 7.0625 C8.83203125 3.72265625 8.83203125 3.72265625 10 1 C10.99 0.67 11.98 0.34 13 0 C13.67189656 2.91555115 14.33769308 5.83226951 15 8.75 C15.19078125 9.575 15.3815625 10.4 15.578125 11.25 C15.84882813 12.44882812 15.84882813 12.44882812 16.125 13.671875 C16.29257813 14.4050293 16.46015625 15.13818359 16.6328125 15.89355469 C17 18 17 18 17 22 C16.01 22 15.02 22 14 22 C13.01 18.04 12.02 14.08 11 10 C9.68 13.96 8.36 17.92 7 22 C4.77174356 19.77174356 4.30760631 18.34238372 3.375 15.375 C3.11460937 14.55773437 2.85421875 13.74046875 2.5859375 12.8984375 C2.39257812 12.27195312 2.19921875 11.64546875 2 11 C0.0210244 14.63616656 -0.5251065 17.88425629 -1 22 C-1.99 22 -2.98 22 -4 22 C-3.5697663 14.3299717 -2.25768639 7.34103058 0 0 Z " fill="#C9A96E" transform="translate(158,351)"/>
<path d="M0 0 C0.66 0 1.32 0 2 0 C3.65 4.29 5.3 8.58 7 13 C8.32 8.71 9.64 4.42 11 0 C11.66 0 12.32 0 13 0 C15.00236413 7.32940833 16.51298949 14.40935336 17 22 C16.01 22 15.02 22 14 22 C13.34 18.37 12.68 14.74 12 11 C10.20446585 13.69330122 9.57303539 15.1460601 8.875 18.1875 C8.441875 20.0746875 8.441875 20.0746875 8 22 C7.34 22 6.68 22 6 22 C4.68 18.04 3.36 14.08 2 10 C0.515 15.445 0.515 15.445 -1 21 C-1.66 21 -2.32 21 -3 21 C-3.43230491 13.65081658 -1.81774185 7.09784913 0 0 Z " fill="#C9A96E" transform="translate(210,351)"/>
<path d="M0 0 C9 0 9 0 13 2 C14 5.375 14 5.375 14 9 C12.5 11.4375 12.5 11.4375 10 13 C6.25 13.25 6.25 13.25 3 13 C3 15.97 3 18.94 3 22 C2.01 22 1.02 22 0 22 C0 14.74 0 7.48 0 0 Z " fill="#C9A96E" transform="translate(102,351)"/>
<path d="M0 0 C4.62 0 9.24 0 14 0 C14 0.99 14 1.98 14 3 C10.7 3 7.4 3 4 3 C4 4.65 4 6.3 4 8 C6.31 8 8.62 8 11 8 C11 8.99 11 9.98 11 11 C8.69 11 6.38 11 4 11 C4 13.64 4 16.28 4 19 C7.3 19 10.6 19 14 19 C14 19.99 14 20.98 14 22 C9.38 22 4.76 22 0 22 C0 14.74 0 7.48 0 0 Z " fill="#C9A96E" transform="translate(138,351)"/>
<path d="M0 0 C0.66 0 1.32 0 2 0 C3.17780436 2.91229133 4.34025075 5.83047678 5.5 8.75 C5.83386719 9.575 6.16773438 10.4 6.51171875 11.25 C6.98544922 12.44882812 6.98544922 12.44882812 7.46875 13.671875 C7.90864258 14.77160645 7.90864258 14.77160645 8.35742188 15.89355469 C9 18 9 18 9 22 C8.01 22 7.02 22 6 22 C5.67 20.35 5.34 18.7 5 17 C2.03 17 -0.94 17 -4 17 C-4.33 18.65 -4.66 20.3 -5 22 C-5.99 22 -6.98 22 -8 22 C-5.92957946 14.39162534 -3.14169523 7.2271408 0 0 Z " fill="#C9A96E" transform="translate(263,351)"/>
<!-- Small inner highlights - cream -->
<path d="M0 0 C2.24117298 1.66747559 2.92471981 2.5579134 3.3984375 5.33984375 C3.39070313 6.19707031 3.38296875 7.05429687 3.375 7.9375 C3.38273437 8.79214844 3.39046875 9.64679688 3.3984375 10.52734375 C2.92219932 13.48282189 2.07978621 14.86663616 0 17 C-3.0625 17.4375 -3.0625 17.4375 -6 17 C-8.22264871 13.66602694 -8.29675463 12.40485109 -8.3125 8.5 C-8.32925781 7.5409375 -8.34601563 6.581875 -8.36328125 5.59375 C-8 3 -8 3 -6.63671875 1.1796875 C-4.29908117 -0.50519687 -2.81298705 -0.42194806 0 0 Z " fill="#F8F4EE" transform="translate(332,353)"/>
<path d="M0 0 C3.008821 0.45132315 3.69339365 0.96963268 5.5 3.375 C5.8984375 5.96875 5.8984375 5.96875 5.875 8.875 C5.88273437 9.8340625 5.89046875 10.793125 5.8984375 11.78125 C5.5 14.375 5.5 14.375 4.1328125 16.19140625 C2.5 17.375 2.5 17.375 0 17.8125 C-2.5 17.375 -2.5 17.375 -4.1328125 15.6640625 C-5.73081451 12.98855056 -5.90300234 11.40675893 -5.875 8.3125 C-5.88273437 7.45527344 -5.89046875 6.59804688 -5.8984375 5.71484375 C-5.26204948 1.97762393 -3.70808977 0.55621346 0 0 Z " fill="#F8F4EE" transform="translate(400.5,352.625)"/>
<!-- Oval ring outline - gold -->
<path d="M0 0 C3.63354502 0.94501473 4.93542865 2.37566977 6.9375 5.50390625 C7.73651437 10.19043287 7.53422197 14.13997033 5.625 18.50390625 C3.32275909 21.23248807 1.60898316 22.40172403 -1.9375 22.94140625 C-6.10872291 22.35743504 -7.44796131 20.71605378 -10.0625 17.50390625 C-11.51098902 13.15843918 -12.14188911 8.89974656 -10.2265625 4.6484375 C-7.39027888 0.64147306 -4.67146787 -0.41583142 0 0 Z M-6.3125 4.56640625 C-8.49988711 8.23809176 -8.58943888 10.28839522 -8.0625 14.50390625 C-7.12400487 17.48732242 -7.12400487 17.48732242 -5.0625 19.50390625 C-2.0625 20.33723958 -2.0625 20.33723958 0.9375 19.50390625 C3.55130886 16.71584346 4.15988513 14.15387261 4.375 10.44140625 C4.2599844 6.53933995 4.2599844 6.53933995 2.1875 4.00390625 C-1.26843875 1.69994709 -3.25696479 1.76549897 -6.3125 4.56640625 Z " fill="#C9A96E" transform="translate(543.0625,350.49609375)"/>
<!-- Remaining tagline letters - all gold -->
<path d="M0 0 C0.99 0 1.98 0 3 0 C3 2.97 3 5.94 3 9 C6.3 9 9.6 9 13 9 C13 6.03 13 3.06 13 0 C13.99 0 14.98 0 16 0 C16 7.26 16 14.52 16 22 C15.01 22 14.02 22 13 22 C13 18.37 13 14.74 13 11 C9.7 11 6.4 11 3 11 C3 14.63 3 18.26 3 22 C2.01 22 1.02 22 0 22 C0 14.74 0 7.48 0 0 Z " fill="#C9A96E" transform="translate(291,351)"/>
<path d="M0 0 C4.26016901 4.26016901 7.491094 8.18545456 11 13 C11.33 8.71 11.66 4.42 12 0 C12.99 0 13.98 0 15 0 C15 7.26 15 14.52 15 22 C14.34 22 13.68 22 13 22 C11.85498047 20.62304688 11.85498047 20.62304688 10.6171875 18.71875 C10.17246094 18.04199219 9.72773438 17.36523438 9.26953125 16.66796875 C8.57923828 15.59482422 8.57923828 15.59482422 7.875 14.5 C7.40707031 13.78457031 6.93914062 13.06914062 6.45703125 12.33203125 C5.29847499 10.55873085 4.14843934 8.7798691 3 7 C2.67 11.62 2.34 16.24 2 21 C1.34 21 0.68 21 0 21 C0 14.07 0 7.14 0 0 Z " fill="#C9A96E" transform="translate(343,351)"/>
<path d="M0 0 C0.99 0 1.98 0 3 0 C3.06058594 1.13179688 3.12117187 2.26359375 3.18359375 3.4296875 C3.26799917 4.91147145 3.35264717 6.3932416 3.4375 7.875 C3.47681641 8.62136719 3.51613281 9.36773437 3.55664062 10.13671875 C3.71573624 14.19986864 3.71573624 14.19986864 5 18 C6.99954746 18.04254356 9.00041636 18.04080783 11 18 C13.11925604 15.88074396 12.41831017 11.3803907 12.5625 8.4375 C12.60568359 7.63119141 12.64886719 6.82488281 12.69335938 5.99414062 C12.79975262 3.99631195 12.90040888 1.9981793 13 0 C13.99 0 14.98 0 16 0 C16.13548815 2.73083902 16.23429855 5.45491807 16.3125 8.1875 C16.35439453 8.95642578 16.39628906 9.72535156 16.43945312 10.51757812 C16.53146412 14.80529056 16.39297221 16.48472522 13.703125 20.01171875 C11 22 11 22 7.4375 22.625 C4 22 4 22 1.80078125 20.01171875 C-0.63207211 15.94289024 -0.45210016 12.82414396 -0.25 8.1875 C-0.23195312 7.39923828 -0.21390625 6.61097656 -0.1953125 5.79882812 C-0.14844048 3.86535739 -0.0767041 1.93251715 0 0 Z " fill="#C9A96E" transform="translate(187,351)"/>
<path d="M0 0 C4.29 0 8.58 0 13 0 C13 0.99 13 1.98 13 3 C9.7 3 6.4 3 3 3 C3 4.98 3 6.96 3 9 C5.31 9 7.62 9 10 9 C10 9.66 10 10.32 10 11 C7.69 11 5.38 11 3 11 C3 13.64 3 16.28 3 19 C6.3 19 9.6 19 13 19 C13 19.99 13 20.98 13 22 C8.71 22 4.42 22 0 22 C0 14.74 0 7.48 0 0 Z " fill="#C9A96E" transform="translate(575,351)"/>
<path d="M0 0 C4.29 0 8.58 0 13 0 C13 0.99 13 1.98 13 3 C9.7 3 6.4 3 3 3 C3 4.98 3 6.96 3 9 C5.31 9 7.62 9 10 9 C10 9.66 10 10.32 10 11 C7.69 11 5.38 11 3 11 C3 13.64 3 16.28 3 19 C6.3 19 9.6 19 13 19 C13 19.99 13 20.98 13 22 C8.71 22 4.42 22 0 22 C0 14.74 0 7.48 0 0 Z " fill="#C9A96E" transform="translate(481,351)"/>
<path d="M0 0 C4.29 0 8.58 0 13 0 C13 0.66 13 1.32 13 2 C9.7 2 6.4 2 3 2 C3 4.31 3 6.62 3 9 C5.31 9 7.62 9 10 9 C10 9.66 10 10.32 10 11 C7.69 11 5.38 11 3 11 C3 13.64 3 16.28 3 19 C6.3 19 9.6 19 13 19 C13 19.99 13 20.98 13 22 C8.71 22 4.42 22 0 22 C0 14.74 0 7.48 0 0 Z " fill="#C9A96E" transform="translate(445,351)"/>
<path d="M0 0 C4.62 0 9.24 0 14 0 C14 0.99 14 1.98 14 3 C10.7 3 7.4 3 4 3 C4 4.65 4 6.3 4 8 C6.31 8 8.62 8 11 8 C11 8.99 11 9.98 11 11 C8.36 11 5.72 11 3 11 C3 14.63 3 18.26 3 22 C2.01 22 1.02 22 0 22 C0 14.74 0 7.48 0 0 Z " fill="#C9A96E" transform="translate(243,351)"/>
<path d="M0 0 C4.61711926 4.61711926 7.52460068 8.58484292 11 14 C11.33 9.38 11.66 4.76 12 0 C12.66 0 13.32 0 14 0 C14 6.93 14 13.86 14 21 C9.93887294 16.93887294 7.09323472 13.68404114 4 9 C4 8.34 4 7.68 4 7 C3.34 7 2.68 7 2 7 C2 11.62 2 16.24 2 21 C1.34 21 0.68 21 0 21 C0 14.07 0 7.14 0 0 Z " fill="#C9A96E" transform="translate(555,351)"/>
<path d="M0 0 C0.99 0 1.98 0 3 0 C4.65 4.29 6.3 8.58 8 13 C8.639375 11.411875 9.27875 9.82375 9.9375 8.1875 C10.29714844 7.29417969 10.65679687 6.40085937 11.02734375 5.48046875 C11.73613486 3.6729091 12.3860247 1.84192591 13 0 C14.32 0.33 15.64 0.66 17 1 C14.36 7.93 11.72 14.86 9 22 C8.34 22 7.68 22 7 22 C5.82828244 18.71010914 4.66348912 15.41780898 3.5 12.125 C3.16613281 11.18785156 2.83226562 10.25070312 2.48828125 9.28515625 C2.17246094 8.38925781 1.85664063 7.49335938 1.53125 6.5703125 C1.23798828 5.74289551 0.94472656 4.91547852 0.64257812 4.06298828 C0 2 0 2 0 0 Z " fill="#C9A96E" transform="translate(461,351)"/>
<path d="M0 0 C1.21816406 0.03480469 1.21816406 0.03480469 2.4609375 0.0703125 C3.68683594 0.09738281 3.68683594 0.09738281 4.9375 0.125 C5.87722656 0.15980469 5.87722656 0.15980469 6.8359375 0.1953125 C6.5059375 1.1853125 6.1759375 2.1753125 5.8359375 3.1953125 C3.8559375 3.1953125 1.8759375 3.1953125 -0.1640625 3.1953125 C-0.12625952 5.56764861 -0.12625952 5.56764861 0.8359375 8.1953125 C3.75915715 10.47770421 3.75915715 10.47770421 6.8359375 12.1953125 C7.1659375 12.5253125 7.4959375 12.8553125 7.8359375 13.1953125 C7.5859375 16.6328125 7.5859375 16.6328125 6.8359375 20.1953125 C3.1917601 22.6247641 1.12352478 22.35710825 -3.1640625 22.1953125 C-3.4940625 20.8753125 -3.8240625 19.5553125 -4.1640625 18.1953125 C-1.5240625 18.1953125 1.1159375 18.1953125 3.8359375 18.1953125 C3.80500577 15.77945676 3.80500577 15.77945676 2.8359375 13.1953125 C-0.11415623 11.47018785 -0.11415623 11.47018785 -3.1640625 10.1953125 C-4.54531268 7.43281214 -4.35485556 5.24800151 -4.1640625 2.1953125 C-2.1640625 0.1953125 -2.1640625 0.1953125 0 0 Z " fill="#C9A96E" transform="translate(279.1640625,350.8046875)"/>
<path d="M0 0 C4.29 0 8.58 0 13 0 C13 0.99 13 1.98 13 3 C9.7 3 6.4 3 3 3 C3 4.98 3 6.96 3 9 C5.31 9 7.62 9 10 9 C10 9.66 10 10.32 10 11 C7.69 11 5.38 11 3 11 C3 14.63 3 18.26 3 22 C2.01 22 1.02 22 0 22 C0 14.74 0 7.48 0 0 Z " fill="#C9A96E" transform="translate(376,351)"/>
<path d="M0 0 C2.51103257 0.37454477 3.67649351 0.58363516 5.265625 2.62890625 C6.17708333 4.41927083 7.08854167 6.20963542 8 8 C8.32613281 7.4225 8.65226563 6.845 8.98828125 6.25 C9.42527344 5.5075 9.86226562 4.765 10.3125 4 C10.74175781 3.2575 11.17101562 2.515 11.61328125 1.75 C12.07089844 1.1725 12.52851562 0.595 13 0 C13.99 0 14.98 0 16 0 C15.08267761 3.03422022 14.29026126 5.59363423 12.4375 8.1875 C10.20339934 12.55856652 10.24616763 17.15304417 10 22 C9.01 22 8.02 22 7 22 C6.99742187 21.33355469 6.99484375 20.66710937 6.9921875 19.98046875 C6.65978547 12.05822047 4.20726525 6.65185362 0 0 Z " fill="#C9A96E" transform="translate(513,351)"/>
<path d="M0 0 C0.66 0 1.32 0 2 0 C2.69640673 2.12209776 3.38188357 4.24778527 4.0625 6.375 C4.44535156 7.55835938 4.82820312 8.74171875 5.22265625 9.9609375 C6 13 6 13 5 15 C3 14 3 14 2 11 C-0.12046792 14.53411321 -0.53199289 17.94393835 -1 22 C-1.99 22 -2.98 22 -4 22 C-3.5697663 14.3299717 -2.25768639 7.34103058 0 0 Z " fill="#C9A96E" transform="translate(158,351)"/>
<path d="M0 0 C1.32 0 2.64 0 4 0 C4 7.26 4 14.52 4 22 C2.68 22 1.36 22 0 22 C0 14.74 0 7.48 0 0 Z " fill="#C9A96E" transform="translate(312,351)"/>
<path d="M0 0 C1.32 0 2.64 0 4 0 C4 7.26 4 14.52 4 22 C2.68 22 1.36 22 0 22 C0 14.74 0 7.48 0 0 Z " fill="#C9A96E" transform="translate(316,351)"/>
<!-- Letter counter holes - transparent -->
<path d="M0 0 C2.84326464 -0.23053497 4.46145349 -0.35903101 6.875 1.25 C8 3 8 3 7.8125 5.0625 C7 7 7 7 5 9 C2.375 9.125 2.375 9.125 0 9 C0 6.03 0 3.06 0 0 Z " fill="none" transform="translate(105,353)"/>
<path d="M0 0 C2.375 -0.125 2.375 -0.125 5 0 C5.66 0.66 6.32 1.32 7 2 C6.44444444 6.55555556 6.44444444 6.55555556 5 8 C3.33382885 8.04063832 1.66611905 8.042721 0 8 C0 5.36 0 2.72 0 0 Z " fill="none" transform="translate(123,353)"/>
<path d="M0 0 C2.31 0 4.62 0 7 0 C7 1.98 7 3.96 7 6 C4.69 6.33 2.38 6.66 0 7 C0 4.69 0 2.38 0 0 Z " fill="none" transform="translate(501,354)"/>
<path d="M0 0 C1.98 0 3.96 0 6 0 C6.625 2.375 6.625 2.375 7 5 C5 7 5 7 2.375 7.125 C1.59125 7.08375 0.8075 7.0425 0 7 C0 4.69 0 2.38 0 0 Z " fill="none" transform="translate(417,354)"/>
<path d="M0 0 C2 1 2 1 2.6328125 2.84765625 C2.79523438 3.57855469 2.95765625 4.30945313 3.125 5.0625 C3.29257812 5.79597656 3.46015625 6.52945312 3.6328125 7.28515625 C3.75398438 7.85105469 3.87515625 8.41695313 4 9 C2.02 9 0.04 9 -2 9 C-1.34 6.03 -0.68 3.06 0 0 Z " fill="none" transform="translate(263,357)"/>
<!-- Remaining small detail strokes - gold -->
<path d="M0 0 C6.19847328 -0.59600705 6.19847328 -0.59600705 9.4375 1.8125 C11.73197952 6.49323823 11.32289645 10.87850352 11 16 C10.01 15.67 9.02 15.34 8 15 C7.95101563 14.30132812 7.90203125 13.60265625 7.8515625 12.8828125 C7.77679688 11.97273438 7.70203125 11.06265625 7.625 10.125 C7.55539062 9.22007812 7.48578125 8.31515625 7.4140625 7.3828125 C7.20431868 4.82058097 7.20431868 4.82058097 5 3 C3.01178687 2.60235737 1.01055661 2.26224651 -1 2 C-0.67 1.34 -0.34 0.68 0 0 Z " fill="#C9A96E" transform="translate(327,351)"/>
<path d="M0 0 C1.65 1.65 3.3 3.3 5 5 C4.34 5.66 3.68 6.32 3 7 C2.69940057 9.36509361 2.50484988 11.74441881 2.375 14.125 C2.30023438 15.40632813 2.22546875 16.68765625 2.1484375 18.0078125 C2.09945313 18.99523437 2.05046875 19.98265625 2 21 C1.34 21 0.68 21 0 21 C0 14.07 0 7.14 0 0 Z " fill="#C9A96E" transform="translate(343,351)"/>
<path d="M0 0 C0.99 0 1.98 0 3 0 C2.01 4.62 1.02 9.24 0 14 C-0.99 14 -1.98 14 -3 14 C-2.88570603 12.22844346 -2.75816963 10.45773771 -2.625 8.6875 C-2.55539063 7.70136719 -2.48578125 6.71523438 -2.4140625 5.69921875 C-2 3 -2 3 0 0 Z " fill="#C9A96E" transform="translate(157,359)"/>
<path d="M0 0 C1.13764351 4.26616316 2 7.56486311 2 12 C1.01 12 0.02 12 -1 12 C-1.66 8.37 -2.32 4.74 -3 1 C-1 0 -1 0 0 0 Z " fill="#C9A96E" transform="translate(173,361)"/>
<path d="M0 0 C0.33 0.66 0.66 1.32 1 2 C1.66 2 2.32 2 3 2 C2.34 5.3 1.68 8.6 1 12 C0.34 12 -0.32 12 -1 12 C-1.14285714 3.42857143 -1.14285714 3.42857143 0 0 Z " fill="#C9A96E" transform="translate(208,360)"/>
<path d="M0 0 C1.859375 0.24609375 1.859375 0.24609375 4 1 C5.265625 2.84765625 5.265625 2.84765625 6.25 5.0625 C6.75273438 6.16271484 6.75273438 6.16271484 7.265625 7.28515625 C7.50796875 7.85105469 7.7503125 8.41695313 8 9 C6.140625 8.75390625 6.140625 8.75390625 4 8 C2.734375 6.15234375 2.734375 6.15234375 1.75 3.9375 C1.41484375 3.20402344 1.0796875 2.47054688 0.734375 1.71484375 C0.49203125 1.14894531 0.2496875 0.58304687 0 0 Z " fill="#C9A96E" transform="translate(513,351)"/>
<path d="M0 0 C0.33 1.32 0.66 2.64 1 4 C-1.87164566 6.70272533 -3.30991841 7.94791837 -7.3125 8.25 C-8.199375 8.1675 -9.08625 8.085 -10 8 C-10 7.67 -10 7.34 -10 7 C-8.8553125 6.9071875 -8.8553125 6.9071875 -7.6875 6.8125 C-4.78060392 6.24237306 -4.78060392 6.24237306 -3.3125 3.5 C-2.6628125 2.2625 -2.6628125 2.2625 -2 1 C-1.34 0.67 -0.68 0.34 0 0 Z " fill="#C9A96E" transform="translate(336,365)"/>
<path d="M0 0 C0.99 0 1.98 0 3 0 C1.90931332 3.77545388 1.0916909 6.47043472 -2 9 C-2.66 8.34 -3.32 7.68 -4 7 C-2.68 4.69 -1.36 2.38 0 0 Z " fill="#C9A96E" transform="translate(526,351)"/>
<path d="M0 0 C2.64 0.33 5.28 0.66 8 1 C8 1.99 8 2.98 8 4 C5.69 4 3.38 4 1 4 C0.67 2.68 0.34 1.36 0 0 Z " fill="#C9A96E" transform="translate(275,369)"/>
<path d="M0 0 C0.33 0 0.66 0 1 0 C1.33 3.3 1.66 6.6 2 10 C1.01 10 0.02 10 -1 10 C-1.33 7.69 -1.66 5.38 -2 3 C-1.34 3 -0.68 3 0 3 C0 2.01 0 1.02 0 0 Z " fill="#C9A96E" transform="translate(225,363)"/>
<path d="M0 0 C1.32 0.33 2.64 0.66 4 1 C3.67 3.31 3.34 5.62 3 8 C0.4345406 5.4345406 0.45953913 3.52313332 0 0 Z " fill="#C9A96E" transform="translate(162,365)"/>
<path d="M0 0 C0.33 0 0.66 0 1 0 C1 2.64 1 5.28 1 8 C0.01 8 -0.98 8 -2 8 C-1.125 1.125 -1.125 1.125 0 0 Z " fill="#C9A96E" transform="translate(156,165)"/>
<path d="M0 0 C0.66 0 1.32 0 2 0 C3.32 2.31 4.64 4.62 6 7 C4.125 6.6875 4.125 6.6875 2 6 C0 3 0 3 0 0 Z " fill="#C9A96E" transform="translate(347,357)"/>
</svg>
